<svg xmlns="http://www.w3.org/2000/svg" width="40" height="48" viewBox="0 0 40 48">
  <defs>
    <style>
      .a {
        fill: #3a3a3a;
      }
    </style>
  </defs>
  <title>20 Basket</title>
  <g>
    <path class="a" d="M38,5H28V2a2,2,0,0,0-2-2H14a2,2,0,0,0-2,2V5H2A2,2,0,0,0,2,9H4.1L6,46.1A2,2,0,0,0,8,48H32a2,2,0,0,0,2-1.9L35.9,9H38a2,2,0,0,0,0-4ZM30.1,44H9.9L8.1,9H31.9Z"/>
    <path class="a" d="M16,38.5A1.5,1.5,0,0,0,17.5,37V16a1.5,1.5,0,0,0-3,0V37A1.5,1.5,0,0,0,16,38.5Z"/>
    <path class="a" d="M24,38.5A1.5,1.5,0,0,0,25.5,37V16a1.5,1.5,0,0,0-3,0V37A1.5,1.5,0,0,0,24,38.5Z"/>
  </g>
</svg>
